Coordinates
version=1
nRows=5
nColumns=42
inDegrees=yes

Units are S.I. units (second, meters, Newtons, ...)
If the header above contains a line with 'inDegrees', this indicates whether rotational values are in degrees (yes) or radians (no).

endheader
time	pelvis_tilt	pelvis_list	pelvis_rotation	pelvis_tx	pelvis_ty	pelvis_tz	hip_flexion_r	hip_adduction_r	hip_rotation_r	knee_angle_r	knee_adduction_r	knee_angle_r_beta	ankle_angle_r	subtalar_angle_r	mtp_angle_r	hip_flexion_l	hip_adduction_l	hip_rotation_l	knee_angle_l	knee_adduction_l	knee_angle_l_beta	ankle_angle_l	subtalar_angle_l	mtp_angle_l	lumbar_extension	lumbar_bending	lumbar_rotation	arm_flex_r	arm_add_r	arm_rot_r	elbow_flex_r	pro_sup_r	wrist_flex_r	wrist_dev_r	arm_flex_l	arm_add_l	arm_rot_l	elbow_flex_l	pro_sup_l	wrist_flex_l	wrist_dev_l
      0.44000000	      2.25027955	      2.06636073	      5.94816421	     -2.27496207	      0.82248501	      0.13800562	     40.08049679	     -2.51492745	    -36.87819845	     31.11419481	    -21.72386909	      0.54304514	      6.41350240	     20.77410482	     -9.53500478	     -5.62246288	      2.87072026	    -20.47460052	     35.41828471	    -18.46799462	      0.61816568	     36.56040756	     27.54380124	     -9.53500478	    -21.28629726	     -1.52065557	     -2.83604357	     -1.72471149	    -10.06490588	      1.53933768	     26.77038745	     90.00000001	      0.00000000	      0.00000000	     24.45569026	    -22.76583535	     11.09601162	     59.67645134	     90.00000001	      0.00000000	      0.00000000
      0.45000000	      2.27637745	      1.59412331	      5.79692018	     -2.26046430	      0.82246933	      0.14080834	     39.75721726	     -1.56233381	    -36.22954799	     32.33124754	    -21.94818884	      0.56428672	      5.36618538	     18.51318235	     -9.37934269	     -5.70590187	      2.11340155	    -19.70194464	     37.31703521	    -18.56923323	      0.65130513	     34.57758556	     26.03267511	     -9.37934269	    -21.17841793	     -0.98418538	     -2.62986960	     -1.52296081	    -10.46765510	      3.48173298	     26.94666670	     90.00000001	      0.00000000	      0.00000000	     23.49707879	    -22.39716798	     10.09199416	     59.48611792	     90.00000001	      0.00000000	      0.00000000
      0.46000000	      2.28682221	      1.18197588	      5.67078064	     -2.24621209	      0.82297315	      0.14351722	     39.43082296	     -0.73269458	    -35.68524714	     33.55787818	    -22.17171893	      0.58569546	      4.84009563	     16.97717744	     -9.22469892	     -5.56787482	      1.54961193	    -18.31355660	     39.62592603	    -18.45576253	      0.69160288	     31.91880424	     23.38302907	     -9.22469892	    -21.10210124	     -0.50090973	     -2.49124355	     -1.13352218	    -10.71181919	      4.77406051	     26.95891825	     90.00000001	      0.00000000	      0.00000000	     22.48721048	    -22.15511430	      9.43757767	     59.27392149	     90.00000001	      0.00000000	      0.00000000
      0.47000000	      2.32395017	      0.79176839	      5.54236963	     -2.23220015	      0.82399252	      0.14614483	     38.99937728	      0.05535165	    -35.06851285	     34.75914678	    -22.25362141	      0.60666156	      4.65697081	     15.31069490	     -9.08202560	     -5.20370841	      1.05364836	    -16.81511439	     42.27270281	    -18.26156389	      0.73779785	     28.77716436	     20.28054951	     -9.08202560	    -21.08837472	     -0.01871051	     -2.39139201	     -0.61217634	    -10.90381713	      5.60757456	     26.98034277	     90.00000001	      0.00000000	      0.00000000	     21.43598745	    -21.89185493	      8.80867221	     58.89194174	     90.00000001	      0.00000000	      0.00000000
      0.48000000	      2.38205089	      0.42125096	      5.38890629	     -2.21843490	      0.82546478	      0.14882696	     38.44304141	      0.85224243	    -34.36065677	     35.86010297	    -22.20607980	      0.62587687	      4.83120529	     13.57456165	     -8.95707290	     -4.59878187	      0.59705403	    -15.27619295	     45.24985247	    -17.94515767	      0.78975891	     25.25396481	     16.59747140	     -8.95707290	    -21.13289196	      0.43085804	     -2.30414551	      0.04410385	    -11.02292732	      6.21092707	     27.02758004	     90.00000001	      0.00000000	      0.00000000	     20.39818301	    -21.62321757	      8.24314256	     58.37080531	     90.00000001	      0.00000000	      0.00000000
